<?xml version="1.0" encoding="UTF-8"?><svg id="Camada_2" xmlns="http://www.w3.org/2000/svg" viewBox="0 0 124.05 165.34"><g id="Camada_1-2"><g><g><path d="M11.87,70.64c0-5.38,4.42-8.67,6.66-10.01,0-.3,0,0,0,0H0s0-.3,0,0c2.39,1.34,6.81,4.63,6.81,10.01v84.71c0,5.23-4.42,8.51-6.81,9.86,0,.3,0,0,0,0H11.87V70.64Z"/><path d="M71.86,165.21l2.5-13.74h0c-5.34,6.93-15.33,13.74-27.93,13.74"/></g><g><path d="M96.12,.17h25.44l2.5,13.74h0C118.71,6.98,108.72,.17,96.12,.17"/><path d="M98.45,56.51h-.51c.09,0,.17,.01,.25,.01-.09,0-.17,.01-.25,.01h.51c7.89,.4,11.61,2.47,12.14,8.01v-16.04c-.53,5.54-4.25,7.61-12.14,8.01Z"/><path d="M55.97,.13s0-.3,0,0c2.24,1.34,6.66,4.78,6.66,10.01V94.85c0,5.23-4.42,8.52-6.66,9.86,0,.3,0,0,0,0h18.38s0,.3,0,0c-2.24-1.34-5.82-4.63-5.82-9.86V.13h-12.56Z"/></g></g></g></svg>